<?xml version="1.0" encoding="iso-8859-1" standalone="yes"?><!-- Generator: Adobe Illustrator 19.0.0, SVG Export Plug-In . SVG Version: 6.00 Build 0)  --><svg xmlns="http://www.w3.org/2000/svg" xmlns:xlink="http://www.w3.org/1999/xlink" version="1.1" id="Capa_1" x="0px" y="0px" viewBox="0 0 512 512" style="enable-background:new 0 0 512 512;zoom: 1;" xml:space="preserve"><g><g><g><path d="M400,0 H112 C50.144,0 0,50.144 0,112 v288 c0,61.856 50.144,112 112,112 h288 c61.856,0 112,-50.144 112,-112 V112 C512,50.144 461.856,0 400,0 M480,400 c0,44.183 -35.817,80 -80,80 H112 c-44.183,0 -80,-35.817 -80,-80 V112 c0,-44.183 35.817,-80 80,-80 h288 c44.183,0 80,35.817 80,80 V400 " stroke="khaki" fill="khaki"></path><path d="M160,112 h-32 c-8.837,0 -16,7.163 -16,16 v32 c0,8.837 7.163,16 16,16 h32 c8.837,0 16,-7.163 16,-16 v-32 C176,119.163 168.837,112 160,112" visibility="hidden"></path><path d="M160,224 h-32 c-8.837,0 -16,7.163 -16,16 v32 c0,8.837 7.163,16 16,16 h32 c8.837,0 16,-7.163 16,-16 v-32 C176,231.163 168.837,224 160,224" visibility="hidden"></path><path d="M160,336 h-32 c-8.837,0 -16,7.163 -16,16 v32 c0,8.837 7.163,16 16,16 h32 c8.837,0 16,-7.163 16,-16 v-32 C176,343.163 168.837,336 160,336" visibility="hidden"></path><rect x="208" y="128" width="192" height="32" visibility="hidden"></rect><rect x="208" y="240" width="192" height="32" visibility="hidden"></rect></g></g></g><g></g><g></g><g></g><g></g><g></g><g></g><g></g><g></g><g></g><g></g><g></g><g></g><g></g><g></g><g></g><text stroke="khaki" style="outline-style:none;" id="text1" stroke-width="1px" x="205.80394px" text-rendering="geometricPrecision" font-family="arial" fill="khaki" font-size="200px" y="388.791443px" transform="" text-anchor="middle" font-weight="bold">&lt;/&gt;</text></svg>