<?xml version="1.0" encoding="iso-8859-1" standalone="yes"?><!-- Generator: Adobe Illustrator 19.0.0, SVG Export Plug-In . SVG Version: 6.00 Build 0)  --><svg xmlns="http://www.w3.org/2000/svg" xmlns:xlink="http://www.w3.org/1999/xlink" cursor="crosshair" stroke="darkkhaki" style="enable-background:new 0 0 512 512;zoom: 1;" id="Capa_1" x="0px" xml:space="preserve" y="0px" version="1.1" viewBox="0 0 512 512" visibility="visible"><g visibility="visible"><g visibility="visible"><g visibility="visible"><path d="M400,0 H112 C50.144,0 0,50.144 0,112 v288 c0,61.856 50.144,112 112,112 h288 c61.856,0 112,-50.144 112,-112 V112 C512,50.144 461.856,0 400,0 M480,400 c0,44.183 -35.817,80 -80,80 H112 c-44.183,0 -80,-35.817 -80,-80 V112 c0,-44.183 35.817,-80 80,-80 h288 c44.183,0 80,35.817 80,80 V400 " stroke="darkkhaki" visibility="visible" fill="darkkhaki"></path></g><rect stroke="darkkhaki" x="75.294121px" height="135.985718px" y="269.233521px" id="rect1" stroke-width="15px" width="189.832397px" fill="none" transform=""></rect><polyline points="180.249557,336.77005 77.119431,271.058838" stroke="darkkhaki" id="polyline4" stroke-width="15px" fill="none" transform=""></polyline><polyline points="172.948303,338.595367 265.126556,270.146179" stroke="darkkhaki" stroke-width="15px" id="polyline5" fill="none" transform=""></polyline></g></g></svg>