<?xml version="1.0" encoding="iso-8859-1" standalone="yes"?><!-- Generator: Adobe Illustrator 19.0.0, SVG Export Plug-In . SVG Version: 6.00 Build 0)  --><svg xmlns="http://www.w3.org/2000/svg" xmlns:xlink="http://www.w3.org/1999/xlink" version="1.1" id="Capa_1" x="0px" y="0px" viewBox="0 0 512 512" style="enable-background:new 0 0 512 512;zoom: 1;" xml:space="preserve"><g visibility="visible"><g><g><path d="M400,0 H112 C50.144,0 0,50.144 0,112 v288 c0,61.856 50.144,112 112,112 h288 c61.856,0 112,-50.144 112,-112 V112 C512,50.144 461.856,0 400,0 M480,400 c0,44.183 -35.817,80 -80,80 H112 c-44.183,0 -80,-35.817 -80,-80 V112 c0,-44.183 35.817,-80 80,-80 h288 c44.183,0 80,35.817 80,80 V400 "></path><path d="M160,112 h-32 c-8.837,0 -16,7.163 -16,16 v32 c0,8.837 7.163,16 16,16 h32 c8.837,0 16,-7.163 16,-16 v-32 C176,119.163 168.837,112 160,112 " visibility="hidden"></path><path d="M160,224 h-32 c-8.837,0 -16,7.163 -16,16 v32 c0,8.837 7.163,16 16,16 h32 c8.837,0 16,-7.163 16,-16 v-32 C176,231.163 168.837,224 160,224 " visibility="hidden"></path><path d="M160,336 h-32 c-8.837,0 -16,7.163 -16,16 v32 c0,8.837 7.163,16 16,16 h32 c8.837,0 16,-7.163 16,-16 v-32 C176,343.163 168.837,336 160,336 " visibility="hidden"></path><rect x="208" y="128" width="192" height="32" visibility="hidden"></rect><rect x="208" y="240" width="192" height="32" visibility="hidden"></rect></g></g></g><g></g><g></g><g></g><g></g><g></g><g></g><g></g><g></g><g></g><g></g><g></g><g></g><g></g><g></g><g></g><text stroke="none" style="outline-style:none;" id="text1" stroke-width="1px" x="205.80394px" text-rendering="geometricPrecision" font-family="arial" fill="#000000" font-size="200px" y="388.791443px" transform="" text-anchor="middle" font-weight="bold"></text><polyline points="95.372551,397.917999" stroke="#000000" id="polyline1" stroke-width="3px" fill="none" transform=""></polyline><rect stroke="#000000" x="75.294121px" height="135.985718px" y="269.233521px" id="rect1" stroke-width="15px" width="189.832397px" fill="none" transform=""></rect><polyline points="77.119431,271.058838" stroke="#000000" id="polyline2" stroke-width="3px" fill="none" transform=""></polyline><polyline points="78.032089,269.233521" stroke="#000000" id="polyline3" stroke-width="15px" fill="none" transform=""></polyline><line stroke="#000000" y1="270.146179px" id="line1" x1="76.206772px" stroke-width="3px" y2="270.146179px" x2="76.206772px" transform=""></line><line stroke="#000000" y1="332.206787px" id="line2" x1="168.385025px" stroke-width="15px" y2="332.206787px" x2="168.385025px" transform=""></line><polyline points="180.249557,336.77005 77.119431,271.058838 " stroke="#000000" id="polyline4" stroke-width="15px" fill="none" transform=""></polyline><polyline points="172.948303,338.595367 265.126556,270.146179 " stroke="#000000" stroke-width="15px" id="polyline5" fill="none" transform=""></polyline></svg>