<?xml version="1.0" encoding="iso-8859-1" standalone="yes"?><!-- Generator: Adobe Illustrator 19.0.0, SVG Export Plug-In . SVG Version: 6.00 Build 0)  --><svg xmlns="http://www.w3.org/2000/svg" xmlns:xlink="http://www.w3.org/1999/xlink" x="0px" stroke="khaki" style="enable-background:new 0 0 512 512;zoom: 1;" id="Capa_1" xml:space="preserve" y="0px" fill="khaki" version="1.1" viewBox="0 0 512 512"><g><g><g><path d="M400,0 H112 C50.144,0 0,50.144 0,112 v288 c0,61.856 50.144,112 112,112 h288 c61.856,0 112,-50.144 112,-112 V112 C512,50.144 461.856,0 400,0 M480,400 c0,44.183 -35.817,80 -80,80 H112 c-44.183,0 -80,-35.817 -80,-80 V112 c0,-44.183 35.817,-80 80,-80 h288 c44.183,0 80,35.817 80,80 V400 "></path><path d="M160,112h-32c-8.837,0-16,7.163-16,16v32c0,8.837,7.163,16,16,16h32c8.837,0,16-7.163,16-16v-32 C176,119.163,168.837,112,160,112z"></path><path d="M160,224h-32c-8.837,0-16,7.163-16,16v32c0,8.837,7.163,16,16,16h32c8.837,0,16-7.163,16-16v-32 C176,231.163,168.837,224,160,224z"></path><path d="M160,336h-32c-8.837,0-16,7.163-16,16v32c0,8.837,7.163,16,16,16h32c8.837,0,16-7.163,16-16v-32 C176,343.163,168.837,336,160,336z"></path><rect x="208" y="128" width="192" height="32"></rect><rect x="208" y="240" width="192" height="32"></rect><rect x="208" y="352" width="192" height="32"></rect></g></g></g><g></g><g></g><g></g><g></g><g></g><g></g><g></g><g></g><g></g><g></g><g></g><g></g><g></g><g></g><g></g></svg>