<?xml version="1.0" encoding="iso-8859-1" standalone="yes"?><!-- Generator: Adobe Illustrator 19.0.0, SVG Export Plug-In . SVG Version: 6.00 Build 0)  --><svg xmlns="http://www.w3.org/2000/svg" xmlns:xlink="http://www.w3.org/1999/xlink" x="0px" stroke="khaki" style="enable-background:new 0 0 512 512;zoom: 1;" id="Capa_1" xml:space="preserve" y="0px" fill="khaki" version="1.1" viewBox="0 0 512 512"><g><g><g><path d="M400,0 H112 C50.144,0 0,50.144 0,112 v288 c0,61.856 50.144,112 112,112 h288 c61.856,0 112,-50.144 112,-112 V112 C512,50.144 461.856,0 400,0 M480,400 c0,44.183 -35.817,80 -80,80 H112 c-44.183,0 -80,-35.817 -80,-80 V112 c0,-44.183 35.817,-80 80,-80 h288 c44.183,0 80,35.817 80,80 V400"></path></g></g></g><g id="g1" stroke="khaki" transform="" fill="khaki"><circle stroke="khaki" id="circle1" cy="249.155045px" stroke-width="15px" fill="none" r="104.955437px" cx="256.912598px" transform=""></circle><polygon points="232.27095,198.046326 232.27095,300.263855 306.196045,250.980362 " stroke="khaki" id="polygon2" stroke-width="3px" fill="khaki" transform=""></polygon></g></svg>